<svg viewBox="0 0 86 86" width="72" height="72" fill="white" xmlns="http://www.w3.org/2000/svg">
<path fill-rule="evenodd" clip-rule="evenodd" d="M43 18C38.0555 18 33.222 19.4662 29.1108 22.2133C24.9995 24.9603 21.7952 28.8648 19.903 33.4329C18.0108 38.0011 17.5157 43.0277 18.4804 47.8773C19.445 52.7268 21.826 57.1814 25.3223 60.6777C28.8187 64.174 33.2732 66.555 38.1227 67.5196C42.9723 68.4842 47.9989 67.9892 52.5671 66.097C57.1352 64.2048 61.0397 61.0005 63.7867 56.8892C66.5338 52.778 68 47.9445 68 43C68 36.3696 65.3661 30.0107 60.6777 25.3223C55.9893 20.6339 49.6304 18 43 18ZM54.5741 35C54.213 38.9537 52.5833 48.5555 51.7546 52.9768C51.4074 54.8287 50.713 55.4768 50.0463 55.537C48.5972 55.6713 47.4907 54.5741 46.088 53.6481C43.8843 52.2083 42.6435 51.3333 40.5093 49.9028C38.037 48.2731 39.6389 47.3796 41.0463 45.9213C41.412 45.537 47.8102 39.7176 47.9352 39.1898C47.9506 39.1125 47.9482 39.0327 47.9281 38.9565C47.9081 38.8803 47.8709 38.8097 47.8195 38.75C47.7432 38.7012 47.6564 38.6712 47.5663 38.6623C47.4762 38.6535 47.3853 38.6661 47.3009 38.6991C47.0787 38.7515 43.5633 41.0741 36.7546 45.6667C35.9811 46.2846 35.0347 46.647 34.0463 46.7037C33.1528 46.7037 31.4352 46.1991 30.1574 45.7778C28.5926 45.2685 27.3472 45 27.4583 44.1343C27.5139 43.6867 28.1312 43.2238 29.3102 42.7454C36.6003 39.5694 41.4614 37.4768 43.8935 36.4676C50.838 33.5787 52.2778 33.0741 53.2176 33.0602C53.563 33.0518 53.902 33.154 54.1852 33.3518C54.3857 33.5236 54.5132 33.7653 54.5417 34.0278C54.5877 34.3497 54.5985 34.6757 54.5741 35Z" >
</path>
</svg>