<svg viewBox="0 0 86 86" width="72" height="72" fill="white" xmlns="http://www.w3.org/2000/svg">
<path fill-rule="evenodd" clip-rule="evenodd" d="M47.1634 43C47.1634 53.1938 38.9557 61.4575 28.8317 61.4575C18.7076 61.4575 10.5 53.1938 10.5 43C10.5 32.8062 18.7076 24.5425 28.8292 24.5425C38.9508 24.5425 47.1634 32.8062 47.1634 43ZM67.2739 42.9985C67.2739 52.5944 63.1701 60.3754 58.1083 60.3754C53.0466 60.3754 48.9421 52.5962 48.9421 42.9985C48.9421 33.4007 53.0459 25.6216 58.1083 25.6216C63.1707 25.6216 67.2739 33.4007 67.2739 42.9985ZM72.2762 58.5671C74.0563 58.5671 75.5 51.5952 75.5 43.0002C75.5 34.4033 74.0569 27.4332 72.2762 27.4332C70.4956 27.4332 69.0525 34.4026 69.0525 43.0002C69.0525 51.5977 70.4962 58.5671 72.2762 58.5671Z">
</path>
</svg>