<svg viewBox="0 0 86 86" width="72" height="72" fill="white" xmlns="http://www.w3.org/2000/svg">
<path d="M64.0758 32.1852C64.1081 32.6503 64.1081 33.1197 64.1081 33.5892C64.1081 47.9605 53.1691 64.5304 33.169 64.5304C27.259 64.5365 21.4722 62.8411 16.5 59.6466C17.3577 59.7458 18.2205 59.7947 19.084 59.7931C23.982 59.7997 28.7396 58.1567 32.5897 55.1289C30.3202 55.0872 28.1205 54.3367 26.2988 52.9825C24.477 51.6284 23.1244 49.7384 22.4303 47.5772C24.0594 47.8921 25.7391 47.8287 27.3399 47.392C24.8812 46.894 22.6702 45.5615 21.0813 43.6202C19.4924 41.6789 18.6232 39.2481 18.621 36.7395V36.6017C20.1329 37.4457 21.8257 37.9133 23.5565 37.9647C21.2536 36.4273 19.6233 34.07 18.9976 31.3728C18.3719 28.6755 18.7979 25.8412 20.1887 23.447C22.9186 26.8072 26.3246 29.5557 30.1857 31.5141C34.0468 33.4724 38.2767 34.5969 42.6006 34.8144C42.0598 32.4833 42.3024 30.0389 43.2907 27.8595C44.2789 25.68 45.9579 23.887 48.0677 22.7578C50.1776 21.6286 52.6008 21.2261 54.9624 21.6127C57.324 21.9992 59.4924 23.1532 61.1321 24.8961C63.5672 24.4144 65.902 23.5201 68.0357 22.2519C67.2238 24.7697 65.525 26.9069 63.2553 28.2661C65.4106 28.0113 67.5155 27.435 69.5 26.5564C68.0406 28.7399 66.2038 30.646 64.0758 32.1852Z">
</path>
</svg>
